# xmcd
#
# Track frame offsets:
#	150
#	37998
#	52263
#	73873
#	92373
#	122478
#	154587
#	182849
#	206139
#	255389
#	292215
#
# Disc length: 4130 seconds
#
# Revision: 0
# Processed by: cddbd v1.5.2PL0 Copyright (c) Steve Scherf et al.
# Submitted via: EasyCDDAExtractor 11.5.0.1
#
DISCID=9f10200b
DTITLE=Юрий Наумов - Рок как будто Блюз (аудиоверсия фильма)
DYEAR=2008
DGENRE=Blues
TTITLE0=Рок как будто Блюз
TTITLE1=Шкодный блюз
TTITLE2=Никак не похлже на Блюз
TTITLE3=Звёзлная Ночь
TTITLE4=Ночь На Хайвее
TTITLE5=Вкра
TTITLE6=Всемирный Закон Торможения
TTITLE7=Пинг-Понг Блюз
TTITLE8=Космос
TTITLE9=Рождён чтоб Играть
TTITLE10=Седьмая глава*
EXTD=
EXTT0=
EXTT1=
EXTT2=
EXTT3=
EXTT4=
EXTT5=
EXTT6=
EXTT7=
EXTT8=
EXTT9=
EXTT10=
PLAYORDER=
